<?xml version="1.0" standalone="no"?>
<!DOCTYPE svg PUBLIC "-//W3C//DTD SVG 20010904//EN"
 "http://www.w3.org/TR/2001/REC-SVG-20010904/DTD/svg10.dtd">
<svg version="1.0" xmlns="http://www.w3.org/2000/svg"
 width="400.000000pt" height="400.000000pt" viewBox="0 0 400.000000 400.000000"
 preserveAspectRatio="xMidYMid meet">
<metadata>
Created by potrace 1.11, written by Peter Selinger 2001-2013
</metadata>
<g transform="translate(0.000000,400.000000) scale(0.100000,-0.100000)"
fill="#000000" stroke="none">
<path d="M1939 3993 c-10 -2 -19 -13 -22 -24 -4 -13 -14 -19 -36 -20 -17 -1
-35 -3 -41 -4 -5 -1 -18 -4 -27 -5 -10 -2 5 -6 32 -10 46 -6 47 -7 13 -8 -21
-1 -52 -11 -70 -22 -18 -11 -51 -20 -73 -21 -33 -1 -36 -2 -15 -8 l25 -7 -22
-12 c-28 -16 -67 -16 -57 0 4 7 3 8 -5 4 -6 -4 -9 -12 -6 -17 4 -5 -6 -9 -21
-9 -19 0 -40 -13 -71 -45 -23 -25 -41 -45 -39 -45 2 0 20 7 41 16 20 8 39 13
41 11 3 -2 -10 -10 -28 -18 -18 -7 -35 -16 -38 -19 -3 -3 -20 -16 -38 -29 -18
-13 -31 -25 -28 -28 5 -6 68 27 77 41 4 5 12 7 19 4 7 -2 -8 -15 -34 -28 -45
-25 -58 -40 -33 -40 7 0 17 3 23 8 5 4 1 -1 -10 -11 -11 -10 -22 -14 -25 -9
-3 5 -14 11 -24 15 -14 5 -19 0 -24 -23 -3 -17 -9 -30 -13 -30 -5 0 -22 -14
-39 -31 -36 -36 -38 -33 -10 18 12 20 15 32 7 26 -22 -19 -94 -172 -105 -223
-5 -27 -3 -32 8 -25 8 4 2 -3 -13 -16 -54 -48 -105 -195 -115 -331 -3 -46 -10
-92 -16 -102 -5 -11 -10 -92 -12 -180 -2 -168 7 -172 25 -9 5 52 14 89 24 99
9 8 16 24 16 35 0 10 7 19 15 19 14 0 20 22 17 62 -2 20 65 139 85 151 7 4 13
15 13 23 0 22 55 74 78 74 11 0 27 7 36 15 8 8 17 15 20 15 2 0 37 22 78 48
93 62 132 82 158 82 12 0 28 7 36 15 22 22 110 20 123 -2 6 -10 11 -12 11 -5
0 6 7 12 16 12 11 0 15 -6 11 -20 -4 -17 -1 -19 20 -14 17 5 30 1 44 -15 11
-11 26 -21 33 -21 31 0 98 -65 186 -181 34 -45 87 -106 130 -150 19 -20 48
-52 63 -72 15 -21 33 -37 38 -37 12 0 73 -44 108 -77 13 -13 28 -23 32 -23 5
0 9 -8 9 -18 0 -10 10 -26 22 -37 15 -12 18 -20 10 -23 -7 -2 -12 -11 -12 -19
0 -12 3 -13 15 -3 8 6 19 9 26 5 8 -6 7 -10 -2 -17 -10 -6 -7 -7 9 -3 15 4 24
1 28 -9 3 -9 13 -16 21 -16 8 0 12 -4 8 -10 -3 -5 12 -28 35 -51 22 -23 40
-44 40 -48 0 -3 10 -11 22 -16 11 -6 37 -38 57 -72 20 -34 42 -62 49 -63 15 0
16 -12 0 -28 -8 -8 -8 -15 -1 -24 17 -21 44 -109 49 -158 3 -25 6 -54 8 -65 2
-11 7 -39 11 -62 7 -44 24 -68 26 -36 1 22 31 75 46 80 6 2 14 -10 18 -26 4
-17 9 -31 12 -31 11 0 42 46 43 63 0 23 5 22 44 -8 18 -14 36 -22 39 -18 13
12 7 54 -8 59 -23 9 -18 31 13 51 33 23 69 19 78 -9 3 -12 7 -50 7 -86 0 -35
3 -60 7 -55 20 23 60 140 60 175 0 40 0 40 -32 35 -18 -3 -52 -12 -76 -21 -49
-19 -62 -15 -62 19 0 17 13 32 47 54 62 41 105 41 143 1 l28 -30 16 47 c30 93
47 174 61 293 8 65 20 132 26 147 6 15 10 89 10 163 0 143 -15 231 -66 379
-24 73 -112 246 -158 315 -34 49 -83 96 -92 88 -5 -4 -5 -2 -2 4 9 16 -60 79
-86 79 -14 0 -22 6 -21 16 1 9 -4 16 -11 16 -7 0 -11 -5 -9 -11 2 -6 -8 -12
-22 -13 -20 -1 -24 1 -13 9 10 6 3 7 -21 3 -21 -4 -30 -3 -23 2 9 6 3 14 -20
27 -17 11 -49 37 -71 59 -33 36 -36 42 -20 47 11 4 14 9 7 13 -7 4 -14 3 -18
-3 -10 -16 -34 -12 -57 10 l-21 20 33 -10 c52 -15 48 -3 -6 20 -27 12 -57 25
-67 31 -23 12 -687 12 -687 -1 0 -6 -17 -10 -37 -9 -31 0 -34 2 -18 9 l20 9
-20 -1 c-11 0 -27 -2 -36 -5z m785 -44 c19 -18 0 -16 -34 3 -35 20 -35 20 -5
13 17 -3 34 -11 39 -16z m-774 1 c0 -5 -7 -10 -15 -10 -8 0 -15 5 -15 10 0 6
7 10 15 10 8 0 15 -4 15 -10z m47 4 c-3 -3 -12 -4 -19 -1 -8 3 -5 6 6 6 11 1
17 -2 13 -5z m763 -54 c0 -5 -2 -10 -4 -10 -3 0 -8 5 -11 10 -3 6 -1 10 4 10
6 0 11 -4 11 -10z m-615 -11 c8 -11 -40 -60 -76 -79 -18 -9 -15 -3 14 27 20
21 37 44 37 51 0 15 16 16 25 1z m680 -11 c14 -6 25 -15 25 -20 0 -11 -7 -10
-40 7 -47 24 -34 36 15 13z m119 -124 c18 -7 22 -54 5 -54 -6 0 -9 9 -6 20 3
12 -1 24 -11 30 -19 11 -12 13 12 4z m120 -30 c3 -8 2 -12 -4 -9 -6 3 -10 10
-10 16 0 14 7 11 14 -7z m-24 -44 c0 -5 -4 -10 -10 -10 -5 0 -10 5 -10 10 0 6
5 10 10 10 6 0 10 -4 10 -10z m-75 -21 c11 -17 -1 -21 -15 -4 -8 9 -8 15 -2
15 6 0 14 -5 17 -11z m40 -9 c3 -5 -1 -10 -9 -10 -9 0 -16 5 -16 10 0 6 4 10
9 10 6 0 13 -4 16 -10z m35 -30 c0 -5 -4 -10 -10 -10 -5 0 -10 5 -10 10 0 6 5
10 10 10 6 0 10 -4 10 -10z m-1613 -115 c-11 -8 -25 -11 -33 -8 -8 3 -14 0
-14 -6 0 -6 6 -11 13 -11 6 0 3 -6 -8 -12 -11 -6 -26 -20 -33 -30 -8 -11 -25
-31 -39 -46 l-24 -27 7 25 c4 14 13 29 20 33 8 4 14 13 14 19 0 7 -5 6 -15 -2
-8 -7 -15 -9 -15 -5 0 10 43 44 56 45 7 0 15 7 18 16 4 9 13 14 21 10 8 -3 21
1 27 8 7 8 15 12 18 9 3 -2 -3 -11 -13 -18z m429 -114 c-4 -6 -14 -7 -23 -4
-15 6 -14 7 3 13 22 9 29 6 20 -9z"/>
<path d="M2880 3901 c0 -5 7 -12 16 -15 14 -5 15 -4 4 9 -14 17 -20 19 -20 6z"/>
<path d="M2922 3835 c18 -13 35 -21 38 -18 2 2 -2 8 -10 13 -27 17 -2 22 29 5
17 -8 31 -13 31 -11 0 12 -47 29 -83 31 l-38 2 33 -22z"/>
<path d="M1170 2576 c0 -8 10 -16 23 -18 12 -2 22 -10 22 -18 1 -8 7 -14 13
-12 10 2 10 -3 3 -16 -8 -15 -5 -24 18 -46 15 -14 31 -23 36 -19 4 5 5 3 1 -4
-3 -6 7 -26 24 -44 48 -54 41 -58 -65 -35 -33 7 -63 11 -67 9 -5 -2 -8 -15 -8
-29 0 -26 27 -33 47 -13 8 8 26 7 65 -5 70 -21 96 -39 48 -33 -19 3 -39 6 -45
7 -5 1 -36 2 -68 1 -50 -1 -58 -4 -55 -18 2 -10 13 -22 26 -28 12 -5 22 -15
22 -22 0 -23 78 -89 118 -101 22 -7 57 -12 78 -12 29 0 35 -3 24 -10 -13 -8
-12 -10 3 -10 9 0 17 5 17 11 0 8 13 9 41 5 47 -8 65 0 48 20 -7 9 -8 14 -1
14 13 0 9 38 -7 69 -8 15 -9 21 -2 17 7 -4 11 1 11 13 0 11 5 23 10 26 17 11
-41 106 -73 120 -16 6 -28 15 -28 18 1 4 0 6 -2 5 -2 -2 -14 8 -28 22 -29 30
-63 50 -84 50 -8 0 -15 5 -15 11 0 5 -4 8 -9 5 -5 -3 -14 1 -21 9 -7 8 -19 15
-27 15 -8 0 -11 5 -8 10 3 6 -1 10 -9 10 -9 0 -16 5 -16 10 0 6 -9 10 -21 10
-11 0 -17 5 -14 10 3 6 -1 10 -9 10 -9 0 -16 -6 -16 -14z m114 -74 c3 -5 -8
-9 -24 -9 -16 0 -27 4 -24 9 3 4 14 8 24 8 10 0 21 -4 24 -8z m24 -248 c15 -4
22 -14 22 -30 0 -12 5 -35 10 -49 10 -26 9 -27 -17 -20 -34 8 -83 53 -83 75 0
30 19 37 68 24z m92 -24 c13 -8 13 -10 -2 -10 -9 0 -20 5 -23 10 -8 13 5 13
25 0z m110 -88 c-7 -3 -16 2 -21 9 -16 25 -9 32 12 13 13 -12 16 -20 9 -22z"/>
<path d="M2250 2529 c-36 -4 -69 -14 -75 -21 -5 -7 -32 -15 -60 -17 -27 -1
-51 -7 -53 -12 -2 -5 -12 -9 -22 -9 -9 0 -23 -7 -30 -15 -7 -8 -20 -15 -29
-15 -10 0 -33 -14 -52 -31 -19 -17 -51 -43 -71 -56 -39 -26 -45 -46 -40 -127
3 -30 39 -85 58 -85 21 -1 45 -49 38 -78 -4 -20 -3 -24 4 -14 9 12 26 10 109
-17 122 -39 194 -38 272 3 18 9 36 13 41 10 6 -3 20 1 32 9 12 9 30 16 39 16
9 0 28 11 42 24 14 13 29 21 34 17 4 -3 1 2 -6 11 -7 10 -22 20 -34 24 -28 9
-56 45 -49 63 3 9 1 12 -6 7 -6 -3 -14 -1 -19 7 -26 41 -180 64 -293 42 -44
-8 -45 -8 -27 12 9 11 17 24 17 30 0 19 46 52 112 82 67 31 152 55 143 41 -2
-4 23 -14 56 -24 33 -9 72 -28 85 -41 14 -14 29 -25 34 -25 5 0 22 -14 39 -31
17 -17 35 -28 40 -25 14 9 2 43 -26 70 -14 14 -22 30 -19 35 4 6 -4 17 -18 26
-16 11 -22 22 -19 35 3 11 0 20 -6 20 -6 0 -11 8 -11 18 0 35 -118 56 -230 41z
m-34 -309 c13 0 24 -5 24 -11 0 -7 -12 -9 -35 -5 -26 5 -40 3 -51 -9 -19 -19
-48 -19 -63 -1 -10 12 -5 16 31 24 24 5 49 8 56 6 8 -2 25 -4 38 -4z m-88 -97
c-3 -38 3 -62 18 -78 23 -23 13 -27 -38 -16 -98 22 -173 71 -110 71 10 0 26 6
37 14 41 28 95 33 93 9z m102 -3 c0 -5 -14 -7 -31 -5 -45 6 -49 15 -6 15 21 0
37 -4 37 -10z m90 -28 c0 -10 -21 -32 -31 -32 -4 0 -5 9 -2 20 5 19 33 29 33
12z"/>
<path d="M3584 2190 c-32 -12 -38 -74 -34 -335 1 -64 2 -68 15 -51 14 18 15
19 15 2 0 -12 5 -16 14 -13 11 5 17 -6 22 -41 9 -57 -14 -729 -30 -897 -10
-113 -12 -120 -33 -123 -20 -3 -23 -9 -23 -47 0 -24 -5 -45 -11 -47 -13 -4
-24 -138 -15 -174 4 -15 11 -21 21 -18 12 5 15 -4 15 -45 0 -34 -4 -51 -12
-51 -7 0 -5 -5 5 -11 10 -6 28 -8 40 -5 22 6 141 -53 167 -83 8 -9 24 -20 35
-24 17 -6 16 -4 -3 11 l-24 18 27 32 c16 20 36 32 51 32 19 0 24 5 24 28 0 15
4 33 9 41 10 15 -15 41 -53 54 -14 6 -17 13 -11 35 7 30 23 52 36 52 14 0 11
-48 -3 -53 -10 -4 -10 -6 0 -6 6 -1 12 -8 12 -17 0 -8 5 -12 10 -9 6 4 8 11 5
16 -3 5 -6 47 -6 94 0 82 -1 87 -30 114 l-30 29 28 10 c15 6 22 11 15 11 -8 1
-10 6 -6 13 9 13 7 137 -1 179 -3 14 -1 37 4 51 7 20 6 29 -3 37 -10 9 -15 8
-20 -4 -12 -33 -26 -2 -22 53 2 31 4 83 5 115 1 37 5 56 11 52 6 -4 8 -12 4
-18 -3 -7 1 -4 9 5 8 10 17 15 20 11 4 -3 7 -2 7 4 0 13 -28 25 -40 18 -4 -3
-7 127 -7 288 l2 292 -88 185 c-49 102 -91 188 -95 191 -4 4 -17 3 -28 -1z
m256 -1561 c0 -6 -4 -7 -10 -4 -5 3 -10 11 -10 16 0 6 5 7 10 4 6 -3 10 -11
10 -16z"/>
<path d="M1468 2095 c-3 -3 -27 -8 -54 -12 -71 -8 -102 -24 -39 -20 44 4 137
34 109 36 -6 1 -13 -1 -16 -4z"/>
<path d="M3000 1885 c-10 -12 -10 -15 3 -15 8 0 20 7 27 15 10 12 10 15 -3 15
-8 0 -20 -7 -27 -15z"/>
<path d="M1854 1666 c0 -31 -4 -60 -11 -67 -19 -19 -60 -13 -93 15 -26 21 -42
26 -85 26 -80 0 -138 -32 -82 -45 12 -3 51 -6 87 -7 54 -3 65 -6 62 -19 -3
-18 24 -29 76 -29 49 0 95 52 87 98 -7 40 -25 82 -35 82 -4 0 -7 -25 -6 -54z"/>
<path d="M2797 1686 c-15 -19 -36 -38 -47 -41 -15 -5 -19 -12 -14 -31 4 -14 2
-24 -4 -24 -6 0 -12 8 -15 18 -3 12 -6 8 -12 -13 -11 -41 -34 -75 -51 -75 -10
0 -14 -14 -14 -50 0 -27 -4 -50 -10 -50 -5 0 -10 -10 -10 -22 0 -20 1 -21 20
-3 11 10 20 25 20 33 0 11 11 14 55 10 31 -3 51 -2 45 2 -15 9 8 90 27 97 7 3
13 11 13 19 0 8 7 14 15 14 25 0 54 71 46 110 -9 46 -32 48 -64 6z"/>
<path d="M1425 1661 c40 -42 55 -50 54 -28 0 14 -48 54 -75 63 -12 4 -3 -10
21 -35z"/>
<path d="M2960 1651 c0 -5 -3 -17 -7 -27 -4 -11 -3 -15 5 -11 6 4 13 -1 15
-10 3 -10 5 -1 6 20 0 20 -3 37 -9 37 -5 0 -10 -4 -10 -9z"/>
<path d="M2892 1633 c-6 -12 -12 -34 -12 -50 l0 -28 15 29 c9 17 14 39 13 50
-3 21 -4 21 -16 -1z"/>
<path d="M2800 1500 c0 -5 5 -10 11 -10 5 0 7 5 4 10 -3 6 -8 10 -11 10 -2 0
-4 -4 -4 -10z"/>
<path d="M2720 1414 c0 -8 5 -12 10 -9 6 3 10 10 10 16 0 5 -4 9 -10 9 -5 0
-10 -7 -10 -16z"/>
<path d="M478 1402 c-16 -9 -28 -20 -28 -25 0 -4 14 2 30 15 26 19 36 29 28
28 -2 0 -15 -8 -30 -18z"/>
<path d="M1354 1358 c-16 -12 -32 -27 -36 -32 -4 -6 -14 -3 -26 7 -15 14 -25
16 -46 7 -39 -14 -31 -45 10 -45 21 0 30 -4 27 -12 -3 -7 -1 -13 3 -13 13 0
37 -58 29 -70 -4 -6 0 -19 8 -28 8 -9 23 -33 32 -52 10 -19 36 -58 58 -87 42
-53 63 -64 165 -79 31 -4 48 -2 60 8 9 8 40 27 67 43 28 16 53 33 57 39 4 6 8
7 8 2 0 -5 9 -1 20 9 11 10 20 24 20 32 0 7 7 16 17 20 21 8 91 7 121 -2 14
-5 22 -3 22 4 0 6 -4 11 -10 11 -5 0 -10 6 -10 13 0 18 -104 77 -137 77 -22 0
-25 -2 -13 -11 11 -8 8 -9 -15 -4 -34 7 -111 57 -170 109 -45 40 -39 38 -117
41 -37 1 -64 8 -76 18 -24 22 -34 21 -68 -5z m6 -130 c0 -5 -4 -8 -10 -8 -5 0
-10 10 -10 23 0 18 2 19 10 7 5 -8 10 -18 10 -22z m17 -15 c-4 -3 -2 -12 4
-20 9 -10 8 -13 -5 -13 -9 0 -16 6 -16 13 0 14 9 27 18 27 3 0 2 -3 -1 -7z"/>
<path d="M328 1295 c-27 -20 -48 -38 -48 -41 0 -6 89 57 96 68 8 13 1 9 -48
-27z"/>
<path d="M902 1319 c-22 -8 -22 -10 -7 -25 18 -19 65 -11 65 10 0 11 -24 29
-33 25 -1 0 -12 -4 -25 -10z"/>
<path d="M1004 1314 c4 -11 -1 -18 -14 -21 -12 -3 -28 -19 -36 -35 -17 -33
-14 -47 6 -23 7 8 19 15 26 15 8 0 14 7 14 15 0 8 11 22 25 31 28 18 25 34 -7
34 -14 0 -18 -5 -14 -16z"/>
<path d="M760 1283 c-19 -8 -44 -23 -55 -32 -11 -10 -36 -24 -55 -31 -59 -22
-79 -60 -32 -60 39 0 60 16 32 23 -13 3 -19 10 -15 17 4 7 18 9 30 6 35 -9 79
10 71 31 -9 22 15 35 34 19 12 -11 22 -12 49 -2 44 14 57 42 16 32 -16 -4 -31
-3 -34 2 -3 5 -21 3 -41 -5z"/>
<path d="M2747 1283 c-4 -3 -7 -17 -7 -30 0 -13 -6 -23 -14 -23 -14 0 -27 -46
-41 -145 -5 -35 -4 -37 5 -15 6 14 21 33 33 43 19 15 19 16 3 10 -16 -5 -18
-3 -11 13 4 10 8 29 9 42 1 12 8 27 16 32 9 5 15 24 15 45 0 19 0 35 -1 35 0
0 -4 -3 -7 -7z"/>
<path d="M1034 1249 c-16 -17 -54 -49 -84 -72 -30 -23 -58 -46 -61 -51 -7 -8
-38 -22 -116 -49 -22 -8 -31 -17 -28 -27 7 -24 -17 -46 -65 -59 -72 -19 -75
-19 -78 14 -2 26 4 36 39 64 l42 34 -24 13 c-13 7 -36 13 -51 14 -19 0 -28 5
-28 16 0 11 -5 14 -16 10 -9 -3 -18 -6 -20 -6 -2 0 -4 -9 -4 -20 0 -17 7 -20
39 -20 53 0 68 -20 36 -50 -13 -12 -31 -20 -39 -17 -10 4 -13 1 -10 -7 3 -8 1
-17 -5 -21 -7 -4 -8 -12 -2 -23 5 -9 11 -21 13 -26 4 -12 51 -14 59 -2 4 4 27
9 53 10 25 0 46 6 46 11 0 6 16 21 35 34 19 13 35 29 35 36 0 8 20 21 45 31
25 9 45 20 45 24 0 4 16 15 36 26 20 10 51 32 68 47 60 55 86 82 86 90 0 15
-17 6 -46 -24z"/>
<path d="M1132 1244 c10 -10 20 -15 24 -12 3 4 -5 12 -18 18 -22 12 -22 12 -6
-6z"/>
<path d="M2650 1241 c-6 -12 -7 -21 -1 -21 10 0 24 30 17 37 -2 3 -9 -5 -16
-16z"/>
<path d="M133 1152 c-73 -53 -133 -101 -133 -105 0 -7 66 38 80 54 3 3 32 24
65 46 59 41 135 102 125 102 -3 0 -65 -43 -137 -97z"/>
<path d="M814 1215 c-17 -13 -16 -14 14 -4 33 11 41 19 19 19 -7 0 -22 -7 -33
-15z"/>
<path d="M750 1192 c0 -7 -10 -13 -22 -13 -19 -1 -20 -2 -4 -6 20 -5 44 12 33
24 -4 3 -7 1 -7 -5z"/>
<path d="M2580 1071 c-47 -46 -112 -103 -145 -127 -33 -24 -64 -47 -70 -52
-32 -25 -108 -62 -160 -77 -33 -10 -66 -23 -73 -28 -7 -6 -59 -23 -116 -37
-104 -27 -236 -83 -236 -99 0 -5 -3 -16 -6 -25 -5 -12 0 -16 20 -16 15 0 38
-7 51 -16 16 -11 49 -17 95 -18 38 0 70 -4 70 -8 0 -5 -7 -8 -17 -8 -9 0 -14
-3 -11 -6 10 -9 168 46 250 87 73 37 82 39 145 35 l68 -5 -54 10 c-30 5 -56
11 -59 13 -2 2 7 13 19 25 18 17 37 21 93 23 39 0 55 3 36 5 -19 2 -46 6 -58
9 l-24 5 25 19 c14 11 40 21 59 21 23 1 26 3 11 6 -28 5 -30 20 -3 28 11 4 35
20 53 37 17 16 42 34 55 39 13 5 20 13 17 19 -12 20 12 9 35 -15 26 -28 52
-35 28 -7 -26 29 -29 56 -17 152 6 50 9 92 7 93 -1 1 -41 -36 -88 -82z m-165
-196 c-20 -21 -90 -55 -112 -55 -12 0 26 28 47 35 14 4 36 16 49 26 35 28 46
23 16 -6z"/>
<path d="M1152 1145 c10 -16 98 -77 98 -68 -1 8 -20 24 -75 59 -16 10 -26 14
-23 9z"/>
<path d="M2275 1130 c-3 -5 1 -10 10 -10 9 0 13 5 10 10 -3 6 -8 10 -10 10 -2
0 -7 -4 -10 -10z"/>
<path d="M148 1053 c-126 -95 -135 -102 -127 -103 4 0 32 19 62 43 31 23 83
62 117 87 33 24 60 46 60 47 0 8 -17 -3 -112 -74z"/>
<path d="M715 1090 c-3 -6 1 -7 9 -4 18 7 21 14 7 14 -6 0 -13 -4 -16 -10z"/>
<path d="M1200 1020 c0 -5 5 -10 10 -10 6 0 10 5 10 10 0 6 -4 10 -10 10 -5 0
-10 -4 -10 -10z"/>
<path d="M1231 933 c-27 -43 -57 -87 -65 -98 -9 -11 -30 -47 -47 -80 -16 -33
-34 -62 -39 -65 -4 -3 -18 -25 -30 -50 -24 -51 -24 -50 -79 -142 -101 -169
-123 -208 -118 -220 2 -8 10 0 18 17 12 27 37 67 71 117 6 9 15 15 20 12 4 -3
8 1 8 9 0 8 7 20 15 27 8 7 12 17 9 22 -3 5 3 12 15 15 12 3 21 11 21 18 0 6
13 30 29 52 16 22 32 54 36 71 3 18 11 34 16 38 16 10 55 76 68 117 7 20 16
37 21 37 5 0 11 8 15 18 3 9 26 40 50 67 27 29 44 58 43 69 -6 41 -29 25 -77
-51z"/>
<path d="M1188 953 c-9 -26 -15 -49 -13 -52 7 -7 36 69 33 86 -2 8 -11 -7 -20
-34z"/>
<path d="M630 931 c0 -6 4 -13 10 -16 6 -3 7 1 4 9 -7 18 -14 21 -14 7z"/>
<path d="M354 914 c-18 -14 -18 -15 4 -4 12 6 22 13 22 15 0 8 -5 6 -26 -11z"/>
<path d="M1082 870 c0 -19 2 -27 5 -17 2 9 2 25 0 35 -3 9 -5 1 -5 -18z"/>
<path d="M25 844 l-30 -26 33 22 c17 12 32 23 32 26 0 7 -4 5 -35 -22z"/>
<path d="M1072 740 c0 -14 2 -19 5 -12 2 6 2 18 0 25 -3 6 -5 1 -5 -13z"/>
<path d="M658 640 c-13 -126 -85 -555 -105 -625 -3 -11 -2 -17 1 -14 13 12 36
111 56 239 52 322 61 387 58 425 -3 34 -4 30 -10 -25z"/>
<path d="M2998 643 c7 -3 16 -2 19 1 4 3 -2 6 -13 5 -11 0 -14 -3 -6 -6z"/>
<path d="M972 610 c-1 -19 -5 -46 -7 -60 l-6 -25 11 25 c6 13 9 40 7 60 l-4
35 -1 -35z"/>
<path d="M1728 623 c6 -2 18 -2 25 0 6 3 1 5 -13 5 -14 0 -19 -2 -12 -5z"/>
<path d="M2240 621 c0 -4 27 -11 60 -14 33 -4 73 -10 88 -13 15 -4 24 -3 20 1
-6 6 -138 35 -160 35 -5 0 -8 -4 -8 -9z"/>
<path d="M756 569 c-4 -28 -5 -53 -3 -56 3 -2 8 19 12 47 4 28 5 53 2 56 -2 3
-7 -19 -11 -47z"/>
<path d="M527 475 c-16 -104 -49 -296 -76 -433 -5 -23 -5 -42 -1 -42 4 0 12
28 18 63 57 327 82 486 80 507 -2 14 -11 -29 -21 -95z"/>
<path d="M2141 555 c7 -7 192 -35 197 -30 5 4 -11 8 -109 24 -72 12 -95 14
-88 6z"/>
<path d="M2082 494 c7 -6 178 -54 193 -54 23 1 -26 20 -102 39 -86 22 -100 24
-91 15z"/>
<path d="M853 445 c0 -27 2 -38 4 -22 2 15 2 37 0 50 -2 12 -4 0 -4 -28z"/>
<path d="M742 450 c0 -14 2 -19 5 -12 2 6 2 18 0 25 -3 6 -5 1 -5 -13z"/>
<path d="M2868 371 c-26 -32 -77 -110 -114 -172 -37 -63 -74 -123 -83 -134
-15 -19 -15 -19 2 -6 10 8 37 46 59 85 65 112 125 203 164 246 20 22 32 40 28
39 -5 0 -30 -26 -56 -58z"/>
<path d="M2105 394 c39 -13 77 -23 85 -21 16 3 -119 47 -142 46 -7 0 19 -11
57 -25z"/>
<path d="M3138 403 c-19 -23 -31 -43 -24 -43 2 0 14 14 26 30 23 33 22 40 -2
13z"/>
<path d="M725 337 c-4 -42 -5 -81 -3 -89 3 -7 8 24 13 70 4 46 5 85 2 88 -3 3
-8 -28 -12 -69z"/>
<path d="M2410 406 c0 -2 8 -10 18 -17 15 -13 16 -12 3 4 -13 16 -21 21 -21
13z"/>
<path d="M841 364 c0 -11 3 -14 6 -6 3 7 2 16 -1 19 -3 4 -6 -2 -5 -13z"/>
<path d="M369 349 c-23 -19 -23 -20 -2 -10 12 6 25 16 28 21 10 16 -1 12 -26
-11z"/>
<path d="M2973 358 c-19 -25 -53 -99 -43 -93 6 4 22 29 35 56 25 47 28 62 8
37z"/>
<path d="M3230 345 c-14 -8 -19 -14 -10 -14 8 0 24 6 34 14 25 19 9 19 -24 0z"/>
<path d="M2000 337 c9 -10 171 -66 165 -58 -2 5 -31 18 -62 29 -71 25 -110 36
-103 29z"/>
<path d="M320 320 c-9 -6 -10 -10 -3 -10 6 0 15 5 18 10 8 12 4 12 -15 0z"/>
<path d="M3112 310 c-29 -10 -65 -27 -80 -37 -15 -10 -39 -25 -54 -33 -16 -7
-26 -15 -24 -17 2 -3 35 12 73 31 38 20 94 45 124 55 29 11 45 20 34 20 -11 0
-44 -9 -73 -19z"/>
<path d="M2378 254 c46 -25 85 -44 88 -42 4 5 -149 88 -162 88 -5 0 28 -21 74
-46z"/>
<path d="M2514 286 c11 -9 27 -16 35 -15 14 0 14 1 1 6 -8 3 -24 10 -35 15
-20 9 -20 9 -1 -6z"/>
<path d="M261 179 c-63 -38 -111 -69 -107 -69 10 0 194 103 221 124 46 35 -8
10 -114 -55z"/>
<path d="M1970 240 c8 -5 20 -10 25 -10 6 0 3 5 -5 10 -8 5 -19 10 -25 10 -5
0 -3 -5 5 -10z"/>
<path d="M2250 225 c0 -2 18 -14 40 -25 50 -25 53 -19 4 9 -36 22 -44 24 -44
16z"/>
<path d="M2095 190 c28 -16 54 -30 59 -30 13 0 -35 34 -67 48 -48 21 -44 13 8
-18z"/>
<path d="M712 170 c0 -19 2 -27 5 -17 2 9 2 25 0 35 -3 9 -5 1 -5 -18z"/>
<path d="M3440 174 c0 -8 5 -12 10 -9 6 4 8 11 5 16 -9 14 -15 11 -15 -7z"/>
<path d="M3320 169 c0 -5 5 -7 10 -4 6 3 10 8 10 11 0 2 -4 4 -10 4 -5 0 -10
-5 -10 -11z"/>
<path d="M3550 176 c0 -2 8 -10 18 -17 15 -13 16 -12 3 4 -13 16 -21 21 -21
13z"/>
<path d="M681 144 c0 -11 3 -14 6 -6 3 7 2 16 -1 19 -3 4 -6 -2 -5 -13z"/>
<path d="M1825 144 c22 -16 35 -18 35 -5 0 5 -12 11 -27 14 -26 5 -26 4 -8 -9z"/>
<path d="M1931 157 c2 -1 13 -9 24 -17 19 -14 19 -14 6 3 -7 9 -18 17 -24 17
-6 0 -8 -1 -6 -3z"/>
<path d="M2809 140 c-31 -23 -123 -129 -117 -135 2 -2 37 32 77 75 40 44 71
80 69 80 -2 0 -15 -9 -29 -20z"/>
<path d="M2924 128 l-29 -33 33 29 c17 17 32 31 32 33 0 8 -8 1 -36 -29z"/>
<path d="M2160 146 c0 -2 13 -6 29 -8 17 -2 28 -1 25 4 -5 8 -54 12 -54 4z"/>
<path d="M310 97 c-31 -17 -81 -45 -113 -62 -31 -17 -52 -32 -47 -33 6 -2 16
0 23 6 7 5 49 29 95 52 45 24 87 49 93 56 16 20 10 18 -51 -19z"/>
<path d="M671 104 c0 -11 3 -14 6 -6 3 7 2 16 -1 19 -3 4 -6 -2 -5 -13z"/>
<path d="M2048 94 c24 -14 46 -24 48 -21 7 6 -60 47 -77 47 -8 0 5 -12 29 -26z"/>
<path d="M125 100 c-3 -5 -1 -10 4 -10 6 0 11 5 11 10 0 6 -2 10 -4 10 -3 0
-8 -4 -11 -10z"/>
<path d="M2150 100 c0 -5 4 -10 9 -10 6 0 13 5 16 10 3 6 -1 10 -9 10 -9 0
-16 -4 -16 -10z"/>
<path d="M3562 75 c0 -16 2 -22 5 -12 2 9 2 23 0 30 -3 6 -5 -1 -5 -18z"/>
<path d="M1860 86 c0 -3 9 -10 20 -16 11 -6 20 -8 20 -6 0 3 -9 10 -20 16 -11
6 -20 8 -20 6z"/>
<path d="M43 54 c-24 -14 -43 -27 -43 -30 0 -6 67 33 85 48 17 15 1 8 -42 -18z"/>
<path d="M1658 73 c6 -2 18 -2 25 0 6 3 1 5 -13 5 -14 0 -19 -2 -12 -5z"/>
<path d="M1767 60 c10 -11 24 -20 33 -20 10 0 7 7 -10 20 -32 25 -44 25 -23 0z"/>
<path d="M651 47 c-15 -39 -14 -45 5 -19 8 12 13 28 11 35 -3 6 -10 -1 -16
-16z"/>
<path d="M2146 61 c-8 -12 39 -61 58 -61 12 0 66 53 66 65 0 14 -23 2 -44 -22
l-23 -27 -26 28 c-14 15 -28 23 -31 17z"/>
<path d="M2398 62 c-9 -4 -26 -19 -38 -35 -32 -41 -2 -35 40 8 33 34 33 41 -2
27z"/>
<path d="M2510 30 c-12 -17 -18 -30 -13 -30 5 0 17 14 26 30 23 39 15 39 -13
0z"/>
<path d="M2904 28 l-29 -33 33 29 c17 17 32 31 32 33 0 8 -8 1 -36 -29z"/>
<path d="M3092 30 c0 -19 2 -27 5 -17 2 9 2 25 0 35 -3 9 -5 1 -5 -18z"/>
<path d="M3672 25 c0 -17 2 -22 5 -12 2 9 2 23 0 30 -3 6 -5 -1 -5 -18z"/>
<path d="M3552 20 c0 -14 2 -19 5 -12 2 6 2 18 0 25 -3 6 -5 1 -5 -13z"/>
<path d="M2000 10 c8 -5 20 -10 25 -10 6 0 3 5 -5 10 -8 5 -19 10 -25 10 -5 0
-3 -5 5 -10z"/>
<path d="M2095 10 c-4 -6 5 -10 20 -10 15 0 24 4 20 10 -8 13 -32 13 -40 0z"/>
<path d="M1597 3 c18 -2 50 -2 70 0 21 2 7 4 -32 4 -38 0 -55 -2 -38 -4z"/>
</g>
</svg>
